<mxfile host="app.diagrams.net" agent="Mozilla/5.0 (Windows NT 10.0; Win64; x64) AppleWebKit/537.36 (KHTML, like Gecko) Chrome/138.0.0.0 Safari/537.36" version="28.0.4">
  <diagram name="Page-1" id="xe1KxlG4cPcUfaDrOBY6">
    <mxGraphModel dx="1042" dy="527" grid="1" gridSize="10" guides="1" tooltips="1" connect="1" arrows="1" fold="1" page="1" pageScale="1" pageWidth="1000" pageHeight="1000" math="0" shadow="0">
      <root>
        <mxCell id="0" />
        <mxCell id="1" parent="0" />
        <mxCell id="j-GfJGww0naDLZrY5yXH-1" value="" style="whiteSpace=wrap;html=1;aspect=fixed;strokeColor=none;fillColor=none;" parent="1" vertex="1">
          <mxGeometry x="475" y="475" width="50" height="50" as="geometry" />
        </mxCell>
        <mxCell id="j-GfJGww0naDLZrY5yXH-2" value="" style="ellipse;whiteSpace=wrap;html=1;aspect=fixed;fillColor=light-dark(#1ABC9C,#1ABC9C);strokeColor=none;strokeWidth=5;" parent="1" vertex="1">
          <mxGeometry x="479" y="479" width="42" height="42" as="geometry" />
        </mxCell>
      </root>
    </mxGraphModel>
  </diagram>
</mxfile>
